<svg xmlns="http://www.w3.org/2000/svg" width="40" height="40" fill="none" viewBox="0 0 40 40">
  <path fill="#E7E2E2" fill-opacity=".81" d="M5 13.333v18.334c0 3.668 2.99 5 5 5h25v-3.334H10.02c-.77-.02-1.687-.323-1.687-1.666 0-1.344.917-1.647 1.687-1.667H35V6.667a3.337 3.337 0 0 0-3.333-3.334H10c-2.01 0-5 1.332-5 5v5Zm5-6.666h21.667v20H8.333V8.333c0-1.343.917-1.646 1.667-1.666Z"/>
  <path fill="#E7E2E2" fill-opacity=".81" d="m19.995 23.333 5.583-5.481a3.549 3.549 0 0 0 0-5.115 3.708 3.708 0 0 0-5.21 0l-.373.363-.373-.365a3.707 3.707 0 0 0-5.209 0 3.55 3.55 0 0 0 0 5.115l5.582 5.483Z"/>
</svg>
