<svg width="40" height="40" viewBox="0 0 40 40" fill="none" xmlns="http://www.w3.org/2000/svg">
<path d="M5.00006 3.59372C4.22341 3.59372 3.59381 4.22332 3.59381 4.99997C3.59381 5.77662 4.22341 6.40622 5.00006 6.40622L5.00006 3.59372ZM9.16673 4.99997L10.531 4.6589C10.3745 4.03289 9.81201 3.59372 9.16673 3.59372V4.99997ZM31.6667 28.0729C32.4434 28.0729 33.073 27.4433 33.073 26.6666C33.073 25.89 32.4434 25.2604 31.6667 25.2604V28.0729ZM35.0001 8.3333L36.3643 8.67437C36.4694 8.25426 36.375 7.8092 36.1085 7.46788C35.842 7.12656 35.4331 6.92705 35.0001 6.92705V8.3333ZM31.6667 21.6666V23.0729C32.312 23.0729 32.8745 22.6337 33.031 22.0077L31.6667 21.6666ZM5.00006 6.40622H9.16673V3.59372H5.00006L5.00006 6.40622ZM7.80247 5.34104L8.6358 8.67437L11.3643 7.99224L10.531 4.6589L7.80247 5.34104ZM8.6358 8.67437L11.9691 22.0077L14.6977 21.3256L11.3643 7.99224L8.6358 8.67437ZM13.3334 20.2604H12.5001V23.0729H13.3334V20.2604ZM12.5001 28.0729H31.6667V25.2604H12.5001V28.0729ZM8.59381 24.1666C8.59381 26.324 10.3427 28.0729 12.5001 28.0729V25.2604C11.896 25.2604 11.4063 24.7707 11.4063 24.1666H8.59381ZM12.5001 20.2604C10.3427 20.2604 8.59381 22.0093 8.59381 24.1666H11.4063C11.4063 23.5626 11.896 23.0729 12.5001 23.0729V20.2604ZM10.0001 9.73955H35.0001V6.92705H10.0001V9.73955ZM33.6358 7.99224L30.3025 21.3256L33.031 22.0077L36.3643 8.67437L33.6358 7.99224ZM31.6667 20.2604H13.3334V23.0729H31.6667V20.2604ZM30.2605 33.3333C30.2605 33.4771 30.1439 33.5937 30.0001 33.5937V36.4062C31.6972 36.4062 33.073 35.0304 33.073 33.3333H30.2605ZM30.0001 33.5937C29.8562 33.5937 29.7396 33.4771 29.7396 33.3333H26.9271C26.9271 35.0304 28.3029 36.4062 30.0001 36.4062V33.5937ZM29.7396 33.3333C29.7396 33.1895 29.8562 33.0729 30.0001 33.0729V30.2604C28.3029 30.2604 26.9271 31.6362 26.9271 33.3333H29.7396ZM30.0001 33.0729C30.1439 33.0729 30.2605 33.1895 30.2605 33.3333H33.073C33.073 31.6362 31.6972 30.2604 30.0001 30.2604V33.0729ZM13.5938 33.3333C13.5938 33.4771 13.4772 33.5937 13.3334 33.5937V36.4062C15.0305 36.4062 16.4063 35.0304 16.4063 33.3333H13.5938ZM13.3334 33.5937C13.1896 33.5937 13.073 33.4771 13.073 33.3333H10.2605C10.2605 35.0304 11.6363 36.4062 13.3334 36.4062V33.5937ZM13.073 33.3333C13.073 33.1895 13.1896 33.0729 13.3334 33.0729V30.2604C11.6363 30.2604 10.2605 31.6362 10.2605 33.3333H13.073ZM13.3334 33.0729C13.4772 33.0729 13.5938 33.1895 13.5938 33.3333H16.4063C16.4063 31.6362 15.0305 30.2604 13.3334 30.2604V33.0729Z" fill="#C3BEBE"/>
</svg>
