<svg xmlns="http://www.w3.org/2000/svg" width="40" height="40" fill="none" viewBox="0 0 40 40">
  <path fill="#E7E2E2" fill-opacity=".81" d="M32.15 28.817 30 26.667v-8.334c0-5.116-2.733-9.4-7.5-10.533V6.667c0-1.384-1.117-2.5-2.5-2.5a2.497 2.497 0 0 0-2.5 2.5V7.8C12.717 8.933 10 13.2 10 18.333v8.334l-2.15 2.15c-1.05 1.05-.317 2.85 1.167 2.85h21.95c1.5 0 2.233-1.8 1.183-2.85Zm-5.483-.484H13.333v-10c0-4.133 2.517-7.5 6.667-7.5s6.667 3.367 6.667 7.5v10ZM20 36.667c1.833 0 3.333-1.5 3.333-3.334h-6.666A3.333 3.333 0 0 0 20 36.667Z"/>
</svg>
