<svg xmlns="http://www.w3.org/2000/svg" width="26" height="26" fill="none" viewBox="0 0 26 26">
  <path fill="gray" d="m23.095 21.696-6.594-6.594a7.549 7.549 0 0 0 1.577-4.641 7.571 7.571 0 0 0-2.232-5.385 7.561 7.561 0 0 0-5.385-2.232 7.571 7.571 0 0 0-5.385 2.232 7.557 7.557 0 0 0-2.232 5.385c0 2.034.794 3.948 2.232 5.385a7.557 7.557 0 0 0 5.385 2.232 7.555 7.555 0 0 0 4.639-1.574l6.594 6.591a.208.208 0 0 0 .294 0l1.107-1.104a.208.208 0 0 0 0-.295Zm-8.612-7.213a5.657 5.657 0 0 1-4.022 1.665 5.657 5.657 0 0 1-4.022-1.665 5.657 5.657 0 0 1-1.666-4.022c0-1.518.592-2.948 1.666-4.022a5.657 5.657 0 0 1 4.022-1.666c1.518 0 2.948.59 4.022 1.666a5.657 5.657 0 0 1 1.665 4.022 5.652 5.652 0 0 1-1.665 4.022Z"/>
</svg>
